<mxfile host="app.diagrams.net" agent="Mozilla/5.0 (Windows NT 10.0; Win64; x64) AppleWebKit/537.36 (KHTML, like Gecko) Chrome/140.0.0.0 Safari/537.36" version="28.2.5">
  <diagram id="6a731a19-8d31-9384-78a2-239565b7b9f0" name="Page-1">
    <mxGraphModel dx="-612" dy="642" grid="1" gridSize="10" guides="1" tooltips="1" connect="1" arrows="1" fold="1" page="1" pageScale="1" pageWidth="827" pageHeight="1169" background="none" math="0" shadow="0">
      <root>
        <mxCell id="0" />
        <mxCell id="1" parent="0" />
        <mxCell id="opC8aSlI3Ma1ktwYAmCt-2259" value="" style="shape=mxgraph.cisco.computers_and_peripherals.pc;sketch=0;html=1;pointerEvents=1;dashed=0;fillColor=#036897;strokeColor=#ffffff;strokeWidth=2;verticalLabelPosition=bottom;verticalAlign=top;align=center;outlineConnect=0;" vertex="1" parent="1">
          <mxGeometry x="2400" y="527" width="78" height="70" as="geometry" />
        </mxCell>
        <mxCell id="opC8aSlI3Ma1ktwYAmCt-2260" value="" style="endArrow=classic;startArrow=classic;html=1;rounded=0;entryX=0;entryY=0.5;entryDx=0;entryDy=0;entryPerimeter=0;" edge="1" parent="1" source="opC8aSlI3Ma1ktwYAmCt-2258" target="opC8aSlI3Ma1ktwYAmCt-2271">
          <mxGeometry width="50" height="50" relative="1" as="geometry">
            <mxPoint x="1889" y="592.5" as="sourcePoint" />
            <mxPoint x="2029" y="562" as="targetPoint" />
          </mxGeometry>
        </mxCell>
        <mxCell id="opC8aSlI3Ma1ktwYAmCt-2261" value="" style="endArrow=classic;startArrow=classic;html=1;rounded=0;" edge="1" parent="1" source="opC8aSlI3Ma1ktwYAmCt-2271" target="opC8aSlI3Ma1ktwYAmCt-2259">
          <mxGeometry width="50" height="50" relative="1" as="geometry">
            <mxPoint x="2107" y="562" as="sourcePoint" />
            <mxPoint x="2301" y="572.5" as="targetPoint" />
          </mxGeometry>
        </mxCell>
        <mxCell id="opC8aSlI3Ma1ktwYAmCt-2262" value="pfsense" style="text;html=1;align=center;verticalAlign=middle;whiteSpace=wrap;rounded=0;fontSize=14;" vertex="1" parent="1">
          <mxGeometry x="2038" y="600" width="60" height="30" as="geometry" />
        </mxCell>
        <mxCell id="opC8aSlI3Ma1ktwYAmCt-2264" value="Victim (Kali)" style="text;html=1;align=center;verticalAlign=middle;whiteSpace=wrap;rounded=0;fontSize=14;" vertex="1" parent="1">
          <mxGeometry x="2409" y="612.5" width="60" height="30" as="geometry" />
        </mxCell>
        <mxCell id="opC8aSlI3Ma1ktwYAmCt-2265" value="192.168.1.1/24" style="text;html=1;align=left;verticalAlign=middle;whiteSpace=wrap;rounded=0;fontSize=14;" vertex="1" parent="1">
          <mxGeometry x="2107" y="506" width="120" height="30" as="geometry" />
        </mxCell>
        <mxCell id="opC8aSlI3Ma1ktwYAmCt-2266" value="192.168.1.101/24" style="text;html=1;align=right;verticalAlign=middle;whiteSpace=wrap;rounded=0;fontSize=14;" vertex="1" parent="1">
          <mxGeometry x="2280" y="506" width="120" height="30" as="geometry" />
        </mxCell>
        <mxCell id="opC8aSlI3Ma1ktwYAmCt-2267" value="" style="group" vertex="1" connectable="0" parent="1">
          <mxGeometry x="1660" y="527" width="78" height="115.5" as="geometry" />
        </mxCell>
        <mxCell id="opC8aSlI3Ma1ktwYAmCt-2258" value="" style="shape=mxgraph.cisco.computers_and_peripherals.pc;sketch=0;html=1;pointerEvents=1;dashed=0;fillColor=#036897;strokeColor=#ffffff;strokeWidth=2;verticalLabelPosition=bottom;verticalAlign=top;align=center;outlineConnect=0;" vertex="1" parent="opC8aSlI3Ma1ktwYAmCt-2267">
          <mxGeometry width="78" height="70" as="geometry" />
        </mxCell>
        <mxCell id="opC8aSlI3Ma1ktwYAmCt-2263" value="Attacker (Kali)" style="text;html=1;align=center;verticalAlign=middle;whiteSpace=wrap;rounded=0;fontSize=14;" vertex="1" parent="opC8aSlI3Ma1ktwYAmCt-2267">
          <mxGeometry x="9" y="85.5" width="60" height="30" as="geometry" />
        </mxCell>
        <mxCell id="opC8aSlI3Ma1ktwYAmCt-2268" value="10.0.2.4/24" style="text;html=1;align=left;verticalAlign=middle;whiteSpace=wrap;rounded=0;fontSize=14;" vertex="1" parent="1">
          <mxGeometry x="1738" y="506" width="120" height="30" as="geometry" />
        </mxCell>
        <mxCell id="opC8aSlI3Ma1ktwYAmCt-2269" value="10.0.2.5/24" style="text;html=1;align=right;verticalAlign=middle;whiteSpace=wrap;rounded=0;fontSize=14;" vertex="1" parent="1">
          <mxGeometry x="1909" y="506" width="120" height="30" as="geometry" />
        </mxCell>
        <mxCell id="opC8aSlI3Ma1ktwYAmCt-2271" value="" style="shape=mxgraph.cisco.security.router_firewall;sketch=0;html=1;pointerEvents=1;dashed=0;fillColor=#036897;strokeColor=#ffffff;strokeWidth=2;verticalLabelPosition=bottom;verticalAlign=top;align=center;outlineConnect=0;" vertex="1" parent="1">
          <mxGeometry x="2029" y="531" width="78" height="62" as="geometry" />
        </mxCell>
        <mxCell id="opC8aSlI3Ma1ktwYAmCt-2273" value="NAT Network&lt;div&gt;(internetNet)&lt;/div&gt;" style="text;html=1;align=center;verticalAlign=middle;whiteSpace=wrap;rounded=0;fontSize=14;" vertex="1" parent="1">
          <mxGeometry x="1818" y="579.5" width="120" height="30" as="geometry" />
        </mxCell>
        <mxCell id="opC8aSlI3Ma1ktwYAmCt-2274" value="Internal Network (labNet)" style="text;html=1;align=center;verticalAlign=middle;whiteSpace=wrap;rounded=0;fontSize=14;" vertex="1" parent="1">
          <mxGeometry x="2198" y="582.5" width="120" height="30" as="geometry" />
        </mxCell>
      </root>
    </mxGraphModel>
  </diagram>
</mxfile>
